<svg xmlns="http://www.w3.org/2000/svg" width="100%" height="100%" viewBox="0 0 57 61.5">
  <path d="M24.5,23.2V46.5L15,37,5.5,27.5,2.8,30.3,0,33,14.3,47.3,28.5,61.5,42.7,47.3,57,33l-2.8-2.7-2.7-2.8L42,37l-9.5,9.5V0h-8Zm6,2.8c0,13.2.3,24,.7,24s5.2-4.4,10.5-9.7c7.8-7.7,10-9.5,11-8.5s-1.4,3.9-11.5,14L28.5,58.5,15.8,45.8C5.7,35.7,3.3,32.8,4.3,31.8s3.2.8,11,8.5C20.6,45.6,25.4,50,25.8,50s.7-10.8.7-24c0-23.3.1-24,2-24S30.5,2.7,30.5,26Z"/>
  <path d="M34.5,3c0,.5.9,1,2,1s2-.5,2-1-.9-1-2-1S34.5,2.4,34.5,3Z"/>
  <path d="M34.5,8c0,.5.9,1,2,1s2-.5,2-1-.9-1-2-1S34.5,7.4,34.5,8Z"/>
  <path d="M34.5,13c0,.5.9,1,2,1s2-.5,2-1-.9-1-2-1S34.5,12.4,34.5,13Z"/>
  <path d="M34.5,18c0,.5.9,1,2,1s2-.5,2-1-.9-1-2-1S34.5,17.4,34.5,18Z"/>
  <path d="M34.5,23c0,.5.9,1,2,1s2-.5,2-1-.9-1-2-1S34.5,22.4,34.5,23Z"/>
  <path d="M34.5,28c0,.5.9,1,2,1s2-.5,2-1-.9-1-2-1S34.5,27.4,34.5,28Z"/>
  <path d="M34.5,33c0,.5.9,1,2,1s2-.5,2-1-.9-1-2-1S34.5,32.4,34.5,33Z"/>
  <path d="M34.5,38c0,.5.9,1,2,1s2-.5,2-1-.9-1-2-1S34.5,37.4,34.5,38Z"/>
</svg>
