<svg xmlns="http://www.w3.org/2000/svg" width="100%" height="100%" viewBox="0 0 67 67">
  <path d="M4,4.5.1,8.5,12.5,21,25,33.5,12.5,46,0,58.5l4.3,4.2L8.5,67,21,54.5,33.5,42,46,54.5,58.5,67l4.2-4.3L67,58.5,54.5,46,42,33.5,54.5,21,67,8.5,62.7,4.3,58.5,0,46,12.5,33.5,25,21.2,12.7C14.5,6,8.7.5,8.4.5S6.1,2.3,4,4.5ZM21.2,15.7,33.5,28,46,15.5,58.5,3l2.7,2.8L64,8.5,51.5,21,39,33.5,51.5,46,64,58.5l-2.8,2.7L58.5,64,46,51.5,33.5,39,21,51.5,8.5,64,5.8,61.2,3,58.5,15.5,46,28,33.5,15.5,21,3.1,8.6,5.5,6A10.8,10.8,0,0,1,8.4,3.5C8.7,3.5,14.5,9,21.2,15.7Z"/>
  <path d="M11.5,11.9a5.73,5.73,0,0,0,1.8,1.7c1.5,1.3,1.6,1.2.3-.4S11.5,11.1,11.5,11.9Z"/>
  <path d="M44.3,22.2,33.5,33l-9.2-9L15,15l9,9.3,9,9.2L22,44.8,11,56,22.2,45,33.5,34l9.2,9L52,52l-9-9.3-9-9.2,11-11c6-6.1,10.7-11,10.5-11S50.2,16.3,44.3,22.2Z"/>
  <path d="M52.5,52.9a5.73,5.73,0,0,0,1.8,1.7c1.5,1.3,1.6,1.2.3-.4S52.5,52.1,52.5,52.9Z"/>
</svg>
