<svg xmlns="http://www.w3.org/2000/svg" width="100%" height="100%" viewBox="0 0 49 78.5">
  <path d="M4.5,4.5.1,9,15,24,30,39,15,54,0,69l4.8,4.7,4.7,4.8L29.2,58.7,49,39,29.5,19.5C18.8,8.8,9.8,0,9.5,0S6.9,2,4.5,4.5ZM28,21,46,39,27.8,57.2,9.5,75.5,6.3,72.2,3,69,18,54,33,39,18,24,3.1,9.1,6,6A18,18,0,0,1,9.4,3C9.8,3,18.1,11.1,28,21Z"/>
  <path d="M12.5,9.5c0,1.4,15.8,17,16.4,16.4.3-.3-3.3-4.3-7.9-8.9S12.5,9,12.5,9.5Z"/>
  <path d="M34.5,31.7c0,1.3,2.9,3.8,3.5,3.1.3-.3-.4-1.3-1.5-2.3S34.5,31.2,34.5,31.7Z"/>
  <path d="M40.5,38a1.1,1.1,0,0,0,1.1,1c.5,0,.7-.5.4-1s-.8-1-1.1-1S40.5,37.4,40.5,38Z"/>
  <path d="M24,56c-6.5,6.6-11.7,12.2-11.4,12.4S18.5,63.6,25,57,36.7,44.8,36.4,44.6,30.5,49.4,24,56Z"/>
</svg>
