<svg xmlns="http://www.w3.org/2000/svg" width="100%" height="100%" viewBox="0 0 49 78.5">
  <path d="M19.5,19.5,0,39,19.8,58.7,39.5,78.5l4.7-4.8L49,69,34,54,19,39,34,24,48.9,9,44.5,4.5C42.1,2,39.8,0,39.5,0S30.2,8.8,19.5,19.5ZM43,6l2.9,3.1L31,24,16,39,31,54,46,69l-3.3,3.2-3.2,3.3L21.2,57.2,3,39,21,21C30.9,11.1,39.2,3,39.6,3A18,18,0,0,1,43,6Z"/>
  <path d="M27.5,17.5c-4.7,4.7-8,8.5-7.5,8.5,1.4,0,17-15.8,16.4-16.4C36.1,9.3,32.1,12.9,27.5,17.5Z"/>
  <path d="M12,33c-1,1.1-1.3,2-.8,2,1.3,0,3.8-2.9,3.1-3.5C14,31.2,13,31.9,12,33Z"/>
  <path d="M7,38c-.3.5-.1,1,.4,1a1.1,1.1,0,0,0,1.1-1c0-.6-.2-1-.4-1S7.3,37.4,7,38Z"/>
  <path d="M12.5,44.5c0,.6,5.4,6.4,12,13s12,11.5,12,11-5.4-6.4-12-13S12.5,44,12.5,44.5Z"/>
</svg>
